<mxfile host="app.diagrams.net" modified="2022-08-12T21:19:50.678Z" agent="5.0 (Windows NT 10.0; Win64; x64) AppleWebKit/537.36 (KHTML, like Gecko) Chrome/104.0.0.0 Safari/537.36" etag="8q9V5Ve_B1pvzkxEa0z4" version="20.2.3" type="github">
  <diagram id="kgpKYQtTHZ0yAKxKKP6v" name="Page-1">
    <mxGraphModel dx="2128" dy="547" grid="1" gridSize="10" guides="1" tooltips="1" connect="1" arrows="1" fold="1" page="1" pageScale="1" pageWidth="850" pageHeight="1100" math="0" shadow="0">
      <root>
        <mxCell id="0" />
        <mxCell id="1" parent="0" />
        <mxCell id="bNNBikwXs6dmu_kMdXJ--18" value="Environmental&amp;nbsp;&lt;br&gt;Sensor" style="rounded=0;whiteSpace=wrap;html=1;" vertex="1" parent="1">
          <mxGeometry x="60" y="30" width="120" height="60" as="geometry" />
        </mxCell>
        <mxCell id="bNNBikwXs6dmu_kMdXJ--19" value="Deckbox" style="rounded=0;whiteSpace=wrap;html=1;" vertex="1" parent="1">
          <mxGeometry x="365" y="30" width="120" height="60" as="geometry" />
        </mxCell>
        <mxCell id="bNNBikwXs6dmu_kMdXJ--20" value="" style="endArrow=classic;html=1;rounded=0;" edge="1" parent="1" source="bNNBikwXs6dmu_kMdXJ--18" target="bNNBikwXs6dmu_kMdXJ--19">
          <mxGeometry relative="1" as="geometry">
            <mxPoint x="220" y="80" as="sourcePoint" />
            <mxPoint x="320" y="80" as="targetPoint" />
          </mxGeometry>
        </mxCell>
        <mxCell id="bNNBikwXs6dmu_kMdXJ--21" value="Bluetooth Transmission" style="edgeLabel;resizable=0;html=1;align=center;verticalAlign=middle;" connectable="0" vertex="1" parent="bNNBikwXs6dmu_kMdXJ--20">
          <mxGeometry relative="1" as="geometry" />
        </mxCell>
        <mxCell id="bNNBikwXs6dmu_kMdXJ--22" value="Fishing Vessel" style="swimlane;" vertex="1" parent="1">
          <mxGeometry x="40" width="480" height="120" as="geometry" />
        </mxCell>
        <mxCell id="bNNBikwXs6dmu_kMdXJ--23" value="API" style="rounded=0;whiteSpace=wrap;html=1;" vertex="1" parent="1">
          <mxGeometry x="365" y="270" width="120" height="60" as="geometry" />
        </mxCell>
        <mxCell id="bNNBikwXs6dmu_kMdXJ--24" value="" style="endArrow=classic;html=1;rounded=0;" edge="1" parent="1" source="bNNBikwXs6dmu_kMdXJ--19" target="bNNBikwXs6dmu_kMdXJ--23">
          <mxGeometry relative="1" as="geometry">
            <mxPoint x="370" y="280" as="sourcePoint" />
            <mxPoint x="470" y="280" as="targetPoint" />
          </mxGeometry>
        </mxCell>
        <mxCell id="bNNBikwXs6dmu_kMdXJ--25" value="Satellite Transmission" style="edgeLabel;resizable=0;html=1;align=center;verticalAlign=middle;" connectable="0" vertex="1" parent="bNNBikwXs6dmu_kMdXJ--24">
          <mxGeometry relative="1" as="geometry" />
        </mxCell>
        <mxCell id="bNNBikwXs6dmu_kMdXJ--32" value="TOWS" style="rounded=0;whiteSpace=wrap;html=1;" vertex="1" parent="1">
          <mxGeometry x="190" y="400" width="120" height="60" as="geometry" />
        </mxCell>
        <mxCell id="bNNBikwXs6dmu_kMdXJ--33" value="TOWS_SUMMARY" style="rounded=0;whiteSpace=wrap;html=1;" vertex="1" parent="1">
          <mxGeometry x="330" y="400" width="120" height="60" as="geometry" />
        </mxCell>
        <mxCell id="bNNBikwXs6dmu_kMdXJ--34" value="TOWS_SENSOR" style="rounded=0;whiteSpace=wrap;html=1;" vertex="1" parent="1">
          <mxGeometry x="480" y="400" width="120" height="60" as="geometry" />
        </mxCell>
        <mxCell id="bNNBikwXs6dmu_kMdXJ--35" value="emolt_dat" style="rounded=0;whiteSpace=wrap;html=1;" vertex="1" parent="1">
          <mxGeometry x="250" y="530" width="120" height="60" as="geometry" />
        </mxCell>
        <mxCell id="bNNBikwXs6dmu_kMdXJ--36" value="" style="endArrow=classic;html=1;rounded=0;" edge="1" parent="1" source="bNNBikwXs6dmu_kMdXJ--23" target="bNNBikwXs6dmu_kMdXJ--32">
          <mxGeometry relative="1" as="geometry">
            <mxPoint x="380" y="360" as="sourcePoint" />
            <mxPoint x="240" y="370" as="targetPoint" />
          </mxGeometry>
        </mxCell>
        <mxCell id="bNNBikwXs6dmu_kMdXJ--37" value="INSERT" style="edgeLabel;resizable=0;html=1;align=center;verticalAlign=middle;" connectable="0" vertex="1" parent="bNNBikwXs6dmu_kMdXJ--36">
          <mxGeometry relative="1" as="geometry" />
        </mxCell>
        <mxCell id="bNNBikwXs6dmu_kMdXJ--38" value="" style="endArrow=classic;html=1;rounded=0;" edge="1" parent="1" source="bNNBikwXs6dmu_kMdXJ--23" target="bNNBikwXs6dmu_kMdXJ--33">
          <mxGeometry relative="1" as="geometry">
            <mxPoint x="394.61538461538476" y="340" as="sourcePoint" />
            <mxPoint x="300.3846153846155" y="410" as="targetPoint" />
          </mxGeometry>
        </mxCell>
        <mxCell id="bNNBikwXs6dmu_kMdXJ--39" value="INSERT" style="edgeLabel;resizable=0;html=1;align=center;verticalAlign=middle;" connectable="0" vertex="1" parent="bNNBikwXs6dmu_kMdXJ--38">
          <mxGeometry relative="1" as="geometry" />
        </mxCell>
        <mxCell id="bNNBikwXs6dmu_kMdXJ--40" value="" style="endArrow=classic;html=1;rounded=0;" edge="1" parent="1" source="bNNBikwXs6dmu_kMdXJ--23" target="bNNBikwXs6dmu_kMdXJ--34">
          <mxGeometry relative="1" as="geometry">
            <mxPoint x="426.9230769230769" y="340" as="sourcePoint" />
            <mxPoint x="408.0769230769231" y="410" as="targetPoint" />
          </mxGeometry>
        </mxCell>
        <mxCell id="bNNBikwXs6dmu_kMdXJ--41" value="INSERT" style="edgeLabel;resizable=0;html=1;align=center;verticalAlign=middle;" connectable="0" vertex="1" parent="bNNBikwXs6dmu_kMdXJ--40">
          <mxGeometry relative="1" as="geometry" />
        </mxCell>
        <mxCell id="bNNBikwXs6dmu_kMdXJ--42" value="" style="endArrow=classic;html=1;rounded=0;" edge="1" parent="1" source="bNNBikwXs6dmu_kMdXJ--32" target="bNNBikwXs6dmu_kMdXJ--35">
          <mxGeometry relative="1" as="geometry">
            <mxPoint x="154.23538461538476" y="440" as="sourcePoint" />
            <mxPoint x="60.00461538461548" y="510" as="targetPoint" />
          </mxGeometry>
        </mxCell>
        <mxCell id="bNNBikwXs6dmu_kMdXJ--43" value="UPDATE" style="edgeLabel;resizable=0;html=1;align=center;verticalAlign=middle;" connectable="0" vertex="1" parent="bNNBikwXs6dmu_kMdXJ--42">
          <mxGeometry relative="1" as="geometry" />
        </mxCell>
        <mxCell id="bNNBikwXs6dmu_kMdXJ--44" value="" style="endArrow=classic;html=1;rounded=0;" edge="1" parent="1" source="bNNBikwXs6dmu_kMdXJ--33" target="bNNBikwXs6dmu_kMdXJ--35">
          <mxGeometry relative="1" as="geometry">
            <mxPoint x="273.8461538461538" y="470" as="sourcePoint" />
            <mxPoint x="306.1538461538462" y="540" as="targetPoint" />
          </mxGeometry>
        </mxCell>
        <mxCell id="bNNBikwXs6dmu_kMdXJ--45" value="UPDATE" style="edgeLabel;resizable=0;html=1;align=center;verticalAlign=middle;" connectable="0" vertex="1" parent="bNNBikwXs6dmu_kMdXJ--44">
          <mxGeometry relative="1" as="geometry" />
        </mxCell>
        <mxCell id="bNNBikwXs6dmu_kMdXJ--47" value="emolt.tmp" style="rounded=0;whiteSpace=wrap;html=1;" vertex="1" parent="1">
          <mxGeometry x="250" y="680" width="120" height="60" as="geometry" />
        </mxCell>
        <mxCell id="bNNBikwXs6dmu_kMdXJ--48" value="" style="endArrow=classic;html=1;rounded=0;" edge="1" parent="1" source="bNNBikwXs6dmu_kMdXJ--35" target="bNNBikwXs6dmu_kMdXJ--47">
          <mxGeometry relative="1" as="geometry">
            <mxPoint x="277.69615384615383" y="600" as="sourcePoint" />
            <mxPoint x="310.0038461538462" y="670" as="targetPoint" />
          </mxGeometry>
        </mxCell>
        <mxCell id="bNNBikwXs6dmu_kMdXJ--49" value="OUTFILE" style="edgeLabel;resizable=0;html=1;align=center;verticalAlign=middle;" connectable="0" vertex="1" parent="bNNBikwXs6dmu_kMdXJ--48">
          <mxGeometry relative="1" as="geometry" />
        </mxCell>
        <mxCell id="bNNBikwXs6dmu_kMdXJ--51" value="emolt.dat" style="rounded=0;whiteSpace=wrap;html=1;" vertex="1" parent="1">
          <mxGeometry x="250" y="900" width="120" height="60" as="geometry" />
        </mxCell>
        <mxCell id="bNNBikwXs6dmu_kMdXJ--52" value="" style="endArrow=classic;html=1;rounded=0;" edge="1" parent="1" source="bNNBikwXs6dmu_kMdXJ--47" target="bNNBikwXs6dmu_kMdXJ--51">
          <mxGeometry relative="1" as="geometry">
            <mxPoint x="425" y="750" as="sourcePoint" />
            <mxPoint x="425" y="840" as="targetPoint" />
          </mxGeometry>
        </mxCell>
        <mxCell id="bNNBikwXs6dmu_kMdXJ--53" value="mv" style="edgeLabel;resizable=0;html=1;align=center;verticalAlign=middle;" connectable="0" vertex="1" parent="bNNBikwXs6dmu_kMdXJ--52">
          <mxGeometry relative="1" as="geometry" />
        </mxCell>
        <mxCell id="bNNBikwXs6dmu_kMdXJ--54" value="proc_emolt_dat_refresh" style="shape=process;whiteSpace=wrap;html=1;backgroundOutline=1;" vertex="1" parent="1">
          <mxGeometry x="50" y="530" width="180" height="60" as="geometry" />
        </mxCell>
        <mxCell id="bNNBikwXs6dmu_kMdXJ--55" value="" style="endArrow=none;dashed=1;html=1;dashPattern=1 3;strokeWidth=2;rounded=0;" edge="1" parent="1" source="bNNBikwXs6dmu_kMdXJ--54" target="bNNBikwXs6dmu_kMdXJ--32">
          <mxGeometry width="50" height="50" relative="1" as="geometry">
            <mxPoint x="400" y="700" as="sourcePoint" />
            <mxPoint x="450" y="650" as="targetPoint" />
          </mxGeometry>
        </mxCell>
        <mxCell id="bNNBikwXs6dmu_kMdXJ--56" value="" style="endArrow=none;dashed=1;html=1;dashPattern=1 3;strokeWidth=2;rounded=0;" edge="1" parent="1" source="bNNBikwXs6dmu_kMdXJ--47" target="bNNBikwXs6dmu_kMdXJ--54">
          <mxGeometry width="50" height="50" relative="1" as="geometry">
            <mxPoint x="148" y="560" as="sourcePoint" />
            <mxPoint x="232" y="470" as="targetPoint" />
          </mxGeometry>
        </mxCell>
        <mxCell id="bNNBikwXs6dmu_kMdXJ--57" value="inotifywait" style="shape=process;whiteSpace=wrap;html=1;backgroundOutline=1;" vertex="1" parent="1">
          <mxGeometry x="50" y="690" width="120" height="60" as="geometry" />
        </mxCell>
        <mxCell id="bNNBikwXs6dmu_kMdXJ--58" value="" style="endArrow=none;dashed=1;html=1;dashPattern=1 3;strokeWidth=2;rounded=0;" edge="1" parent="1" source="bNNBikwXs6dmu_kMdXJ--57" target="bNNBikwXs6dmu_kMdXJ--47">
          <mxGeometry width="50" height="50" relative="1" as="geometry">
            <mxPoint x="400" y="700" as="sourcePoint" />
            <mxPoint x="450" y="650" as="targetPoint" />
          </mxGeometry>
        </mxCell>
        <mxCell id="bNNBikwXs6dmu_kMdXJ--59" value="" style="endArrow=none;dashed=1;html=1;dashPattern=1 3;strokeWidth=2;rounded=0;" edge="1" parent="1" source="bNNBikwXs6dmu_kMdXJ--51" target="bNNBikwXs6dmu_kMdXJ--57">
          <mxGeometry width="50" height="50" relative="1" as="geometry">
            <mxPoint x="170" y="890" as="sourcePoint" />
            <mxPoint x="250" y="862" as="targetPoint" />
          </mxGeometry>
        </mxCell>
        <mxCell id="bNNBikwXs6dmu_kMdXJ--60" value="MySQL Database" style="swimlane;horizontal=0;" vertex="1" parent="1">
          <mxGeometry x="-50" y="350" width="750" height="260" as="geometry" />
        </mxCell>
        <mxCell id="bNNBikwXs6dmu_kMdXJ--61" value="Filesystem" style="swimlane;horizontal=0;" vertex="1" parent="1">
          <mxGeometry x="-50" y="660" width="750" height="130" as="geometry" />
        </mxCell>
        <mxCell id="bNNBikwXs6dmu_kMdXJ--62" value="Web Server" style="swimlane;horizontal=0;" vertex="1" parent="1">
          <mxGeometry x="-50" y="850" width="750" height="130" as="geometry" />
        </mxCell>
      </root>
    </mxGraphModel>
  </diagram>
</mxfile>
